<svg width="35" height="35" viewBox="0 0 35 35" fill="none" xmlns="http://www.w3.org/2000/svg">
<g clip-path="url(#clip0)">
<path d="M28.0032 9.67445L20.2868 27.4269C20.0311 28.0151 19.3794 28.2696 18.8309 27.9953L10.5571 23.8564C10.0088 23.5821 9.77152 22.8829 10.0272 22.2945L17.7436 4.54211C17.9992 3.95392 18.651 3.69937 19.1994 3.97365L27.4733 8.11261C28.0217 8.3869 28.259 9.08625 28.0032 9.67445Z" fill="#7BC740"/>
<path d="M19.0883 19.7512C21.1302 19.7512 22.7854 18.0959 22.7854 16.0541C22.7854 14.0122 21.1302 12.3569 19.0883 12.3569C17.0464 12.3569 15.3912 14.0122 15.3912 16.0541C15.3912 18.0959 17.0464 19.7512 19.0883 19.7512Z" fill="#E0EBFC"/>
<path d="M20.911 17.1942C20.5873 17.6818 20.0852 17.9103 19.5344 17.7059C19.477 17.6846 19.4508 17.6178 19.4767 17.5623L19.6702 17.1473C19.6923 17.0999 19.7455 17.0769 19.796 17.0908C19.9953 17.1455 20.1827 17.1204 20.3339 16.9952C20.3942 16.9452 20.3831 16.8497 20.3121 16.8166L19.3098 16.3491C19.2668 16.3291 19.2159 16.3402 19.1849 16.3761C18.8317 16.7855 18.4285 17.1952 17.692 16.8518C17.1051 16.5782 16.8736 16.0001 17.0495 15.3928C17.0638 15.3432 17.0395 15.2904 16.9926 15.2687L16.7229 15.1429C16.6699 15.1182 16.6472 15.0553 16.6718 15.0024L16.7314 14.8745C16.7561 14.8215 16.819 14.7988 16.8719 14.8234L17.1357 14.9464C17.1826 14.9683 17.2388 14.9533 17.2673 14.9103C17.5688 14.4563 18.0305 14.2605 18.5887 14.429C18.65 14.4475 18.6804 14.517 18.6533 14.5751L18.4616 14.9861C18.4403 15.0321 18.3896 15.0549 18.3401 15.0439C18.1879 15.0103 18.0262 15.0309 17.8897 15.1154C17.8175 15.1602 17.822 15.2666 17.8991 15.3025L18.863 15.752C18.9064 15.7722 18.9578 15.7607 18.9887 15.7243C19.3364 15.3131 19.7325 14.9063 20.4685 15.2495C20.9785 15.4874 21.3175 16.0528 21.1295 16.7113C21.1153 16.7609 21.1395 16.8135 21.1864 16.8353L21.4561 16.9611C21.5091 16.9859 21.5319 17.0488 21.5073 17.1016L21.4477 17.2295C21.4229 17.2825 21.3601 17.3053 21.3072 17.2807L21.0431 17.1576C20.996 17.1353 20.9396 17.1508 20.911 17.1942ZM18.5511 15.9952L17.7081 15.6021C17.6433 15.5719 17.5654 15.6132 17.5584 15.6844C17.5351 15.9202 17.6447 16.1352 17.9249 16.2659C18.1843 16.3869 18.3879 16.3226 18.572 16.1743C18.6332 16.1249 18.6223 16.0286 18.5511 15.9952ZM19.6219 16.1055L20.4637 16.4981C20.5334 16.5305 20.6125 16.4803 20.6145 16.4034C20.6211 16.1507 20.4756 15.9409 20.2375 15.83C19.9823 15.711 19.783 15.7777 19.6003 15.927C19.5397 15.9766 19.5509 16.0725 19.6219 16.1055Z" fill="#4671C6"/>
<path d="M20.4942 4.66558L15.9438 22.7284C15.793 23.3269 15.2147 23.6822 14.6518 23.5218L6.16096 21.1018C5.59829 20.9413 5.26423 20.3262 5.41507 19.7276L9.96544 1.6649C10.1163 1.06642 10.6946 0.711094 11.2574 0.871534L19.7483 3.29154C20.311 3.45183 20.6449 4.0671 20.4942 4.66558Z" fill="#95E358"/>
<path d="M12.9546 14.4693C14.6282 14.4693 15.9849 13.1126 15.9849 11.439C15.9849 9.7654 14.6282 8.40869 12.9546 8.40869C11.281 8.40869 9.92432 9.7654 9.92432 11.439C9.92432 13.1126 11.281 14.4693 12.9546 14.4693Z" fill="#F6F7FB"/>
<path d="M26.8614 34.1662H5.49152C4.59252 34.1662 3.86371 33.466 3.86371 32.6022V14.5181C3.86371 13.6543 4.59252 12.9541 5.49152 12.9541H26.8616C28.3858 12.9541 29.6213 14.1412 29.6213 15.6056V31.5147C29.6211 32.979 28.3856 34.1662 26.8614 34.1662Z" fill="#FB9873"/>
<path d="M30.2526 26.5904H23.8447C22.0143 26.5904 20.5303 25.2336 20.5303 23.5601C20.5303 21.8866 22.0143 20.5298 23.8447 20.5298H30.2526C30.7407 20.5298 31.1364 20.8915 31.1364 21.3379V25.7823C31.1364 26.2285 30.7407 26.5904 30.2526 26.5904Z" fill="#E07B55"/>
<path d="M23.5606 25.0752C24.3974 25.0752 25.0758 24.3969 25.0758 23.5601C25.0758 22.7233 24.3974 22.0449 23.5606 22.0449C22.7238 22.0449 22.0455 22.7233 22.0455 23.5601C22.0455 24.3969 22.7238 25.0752 23.5606 25.0752Z" fill="#FB9873"/>
<path d="M7.98035 30.8726H7.00378C6.78803 30.8726 6.61316 30.6977 6.61316 30.4819C6.61316 30.2662 6.78803 30.0913 7.00378 30.0913H7.98035C8.1961 30.0913 8.37097 30.2662 8.37097 30.4819C8.37097 30.6977 8.19623 30.8726 7.98035 30.8726Z" fill="#E07B55"/>
<path d="M23.6054 30.8726H21.6522C21.4365 30.8726 21.2616 30.6977 21.2616 30.4819C21.2616 30.2662 21.4365 30.0913 21.6522 30.0913H23.6054C23.8211 30.0913 23.996 30.2662 23.996 30.4819C23.996 30.6977 23.8212 30.8726 23.6054 30.8726ZM19.6991 30.8726H17.746C17.5302 30.8726 17.3553 30.6977 17.3553 30.4819C17.3553 30.2662 17.5302 30.0913 17.746 30.0913H19.6991C19.9149 30.0913 20.0897 30.2662 20.0897 30.4819C20.0897 30.6977 19.915 30.8726 19.6991 30.8726ZM15.7928 30.8726H13.8397C13.624 30.8726 13.4491 30.6977 13.4491 30.4819C13.4491 30.2662 13.624 30.0913 13.8397 30.0913H15.7928C16.0086 30.0913 16.1835 30.2662 16.1835 30.4819C16.1835 30.6977 16.0087 30.8726 15.7928 30.8726ZM11.8866 30.8726H9.93347C9.71772 30.8726 9.54285 30.6977 9.54285 30.4819C9.54285 30.2662 9.71772 30.0913 9.93347 30.0913H11.8866C12.1024 30.0913 12.2772 30.2662 12.2772 30.4819C12.2772 30.6977 12.1025 30.8726 11.8866 30.8726Z" fill="#E07B55"/>
<path d="M26.535 30.8726H25.5585C25.3427 30.8726 25.1678 30.6977 25.1678 30.4819C25.1678 30.2662 25.3427 30.0913 25.5585 30.0913H26.535C26.7508 30.0913 26.9257 30.2662 26.9257 30.4819C26.9257 30.6977 26.7509 30.8726 26.535 30.8726Z" fill="#E07B55"/>
<path d="M7.98035 15.6133H7.00378C6.78803 15.6133 6.61316 15.4384 6.61316 15.2227C6.61316 15.0069 6.78803 14.832 7.00378 14.832H7.98035C8.1961 14.832 8.37097 15.0069 8.37097 15.2227C8.37097 15.4384 8.19623 15.6133 7.98035 15.6133Z" fill="#E07B55"/>
<path d="M23.6054 15.6133H21.6522C21.4365 15.6133 21.2616 15.4384 21.2616 15.2227C21.2616 15.0069 21.4365 14.832 21.6522 14.832H23.6054C23.8211 14.832 23.996 15.0069 23.996 15.2227C23.996 15.4384 23.8212 15.6133 23.6054 15.6133ZM19.6991 15.6133H17.746C17.5302 15.6133 17.3553 15.4384 17.3553 15.2227C17.3553 15.0069 17.5302 14.832 17.746 14.832H19.6991C19.9149 14.832 20.0897 15.0069 20.0897 15.2227C20.0897 15.4384 19.915 15.6133 19.6991 15.6133ZM15.7928 15.6133H13.8397C13.624 15.6133 13.4491 15.4384 13.4491 15.2227C13.4491 15.0069 13.624 14.832 13.8397 14.832H15.7928C16.0086 14.832 16.1835 15.0069 16.1835 15.2227C16.1835 15.4384 16.0087 15.6133 15.7928 15.6133ZM11.8866 15.6133H9.93347C9.71772 15.6133 9.54285 15.4384 9.54285 15.2227C9.54285 15.0069 9.71772 14.832 9.93347 14.832H11.8866C12.1024 14.832 12.2772 15.0069 12.2772 15.2227C12.2772 15.4384 12.1025 15.6133 11.8866 15.6133Z" fill="#E07B55"/>
<path d="M26.535 15.6133H25.5585C25.3427 15.6133 25.1678 15.4384 25.1678 15.2227C25.1678 15.0069 25.3427 14.832 25.5585 14.832H26.535C26.7508 14.832 26.9257 15.0069 26.9257 15.2227C26.9257 15.4384 26.7509 15.6133 26.535 15.6133Z" fill="#E07B55"/>
</g>
<defs>
<clipPath id="clip0">
<rect width="33.3333" height="33.3333" fill="white" transform="translate(0.833374 0.833008)"/>
</clipPath>
</defs>
</svg>
