<?xml version="1.0" encoding="UTF-8" standalone="no"?>
<svg height="512pt" viewBox="-11 0 512 512" width="512pt" version="1.1" id="svg8" sodipodi:docname="notification.svg" inkscape:version="1.1 (ce6663b3b7, 2021-05-25)" xmlns:inkscape="http://www.inkscape.org/namespaces/inkscape" xmlns:sodipodi="http://sodipodi.sourceforge.net/DTD/sodipodi-0.dtd" xmlns="http://www.w3.org/2000/svg" xmlns:svg="http://www.w3.org/2000/svg">
  <defs id="defs12"/>
  <sodipodi:namedview id="namedview10" pagecolor="#ffffff" bordercolor="#cccccc" borderopacity="1" inkscape:pageshadow="0" inkscape:pageopacity="1" inkscape:pagecheckerboard="0" inkscape:document-units="pt" showgrid="false" inkscape:zoom="1.1030273" inkscape:cx="401.54406" inkscape:cy="632.69749" inkscape:window-width="1873" inkscape:window-height="1015" inkscape:window-x="47" inkscape:window-y="28" inkscape:window-maximized="1" inkscape:current-layer="svg8" inkscape:rotation="-2"/>
  <path d="m298.667969 426.667969c0 47.128906-38.207031 85.332031-85.335938 85.332031-47.128906 0-85.332031-38.203125-85.332031-85.332031 0-47.128907 38.203125-85.335938 85.332031-85.335938 47.128907 0 85.335938 38.207031 85.335938 85.335938zm0 0" fill="#ffa000" id="path2" style="fill:#f2f2f2"/>
  <path d="m362.835938 254.316406c-72.320313-10.328125-128.167969-72.515625-128.167969-147.648437 0-21.335938 4.5625-41.578125 12.648437-59.949219-10.921875-2.558594-22.269531-4.050781-33.984375-4.050781-82.34375 0-149.332031 66.984375-149.332031 149.332031v59.476562c0 42.21875-18.496094 82.070313-50.945312 109.503907-8.296876 7.082031-13.054688 17.429687-13.054688 28.351562 0 20.589844 16.746094 37.335938 37.332031 37.335938h352c20.589844 0 37.335938-16.746094 37.335938-37.335938 0-10.921875-4.757813-21.269531-13.269531-28.542969-31.488282-26.644531-49.75-65.324218-50.5625-106.472656zm0 0" fill="#ffc107" id="path4" style="fill:#f9f9f9"/>
  <path d="m 475.66797,115.66797 c 0,58.91015 -47.75781,106.66406 -106.66797,106.66406 -58.91016,0 -106.66797,-47.75391 -106.66797,-106.66406 C 262.33203,56.757812 310.08984,9 369,9 427.91016,9 475.66797,56.757812 475.66797,115.66797 Z m 0,0" fill="#f44336" id="path6" style="stroke:#f9f9f9;stroke-width:20;stroke-miterlimit:4;stroke-dasharray:none"/>
</svg>