<?xml version="1.0" encoding="UTF-8" standalone="no"?>
<svg height="512pt" viewBox="-43 0 512 512" width="512pt" version="1.1" id="svg8" sodipodi:docname="notification.svg" inkscape:version="1.1 (ce6663b3b7, 2021-05-25)" xmlns:inkscape="http://www.inkscape.org/namespaces/inkscape" xmlns:sodipodi="http://sodipodi.sourceforge.net/DTD/sodipodi-0.dtd" xmlns="http://www.w3.org/2000/svg" xmlns:svg="http://www.w3.org/2000/svg">
  <defs id="defs12"/>
  <sodipodi:namedview id="namedview10" pagecolor="#ffffff" bordercolor="#cccccc" borderopacity="1" inkscape:pageshadow="0" inkscape:pageopacity="1" inkscape:pagecheckerboard="0" inkscape:document-units="pt" showgrid="false" inkscape:zoom="0.55151365" inkscape:cx="232.08854" inkscape:cy="404.34176" inkscape:window-width="1873" inkscape:window-height="1015" inkscape:window-x="47" inkscape:window-y="28" inkscape:window-maximized="1" inkscape:current-layer="svg8"/>
  <g id="g824" transform="translate(-0.333985,-31.66699)">
    <path d="m 298.66797,425.50195 c 0,47.12891 -38.20703,85.33203 -85.33594,85.33203 -47.12891,0 -85.33203,-38.20312 -85.33203,-85.33203 0,-47.1289 38.20312,-85.33593 85.33203,-85.33593 47.12891,0 85.33594,38.20703 85.33594,85.33593 z m 0,0" fill="#ffa000" id="path2" style="fill:#f2f2f2;stroke:#f2f2f2"/>
    <path d="m 413.41797,382.12109 c -32.25391,-27.26562 -50.75,-67.09375 -50.75,-109.3125 V 213.33203 C 362.66797,130.98437 295.66016,64 213.33203,64 131.00781,64 64,130.98437 64,213.33203 v 59.47656 C 64,315.02734 45.503906,354.87891 13.054688,382.3125 4.757812,389.39453 0,399.74219 0,410.66406 0,431.25391 16.746094,448 37.332031,448 H 389.33203 c 20.58984,0 37.33594,-16.74609 37.33594,-37.33594 0,-10.92187 -4.75781,-21.26953 -13.25,-28.54297 z m 0,0" fill="#ffc107" id="path6" style="fill:#f9f9f9"/>
  </g>
</svg>