<svg width="35" height="35" viewBox="0 0 35 35" fill="none" xmlns="http://www.w3.org/2000/svg">
<g clip-path="url(#clip0)">
<path d="M32.0832 32.0829H2.91664C1.76551 32.0829 0.833328 31.1507 0.833328 29.9996V2.91632C0.833328 1.76519 1.76551 0.833008 2.91664 0.833008H32.0832C33.2343 0.833008 34.1668 1.76519 34.1668 2.91632V29.9996C34.1668 31.1507 33.2343 32.0829 32.0832 32.0829Z" fill="white"/>
<path d="M33.4724 33.472H18.889V29.3051C18.889 28.1542 17.9566 27.2218 16.8057 27.2218H8.47219C7.32132 27.2218 6.38889 26.2896 6.38889 25.1385C6.38889 23.9874 7.32132 23.0552 8.47219 23.0552H28.264C31.14 23.0552 33.4724 25.3875 33.4724 28.2636V33.472Z" fill="#FB9873"/>
<path d="M31.0417 34.1664H28.9584V31.0413C28.9584 30.4662 29.4251 29.9995 29.9999 29.9995C30.5749 29.9995 31.0417 30.4662 31.0417 31.0413V34.1664Z" fill="#FF8051"/>
<path d="M31.1186 24.2329C30.4593 23.9297 29.7314 23.7495 28.9584 23.7495H18.2135C19.3864 26.2089 21.8907 27.9161 24.7918 27.9161C27.499 27.9161 29.8615 26.4296 31.1186 24.2329Z" fill="#FF8051"/>
<path d="M29.9999 20.6247C29.9999 23.5012 27.668 25.833 24.7918 25.833C21.9152 25.833 19.5834 23.5012 19.5834 20.6247C19.5834 17.7484 21.9152 15.4165 24.7918 15.4165C27.668 15.4165 29.9999 17.7484 29.9999 20.6247Z" fill="#FFD8C9"/>
<path d="M24.7918 23.7496C22.2772 23.7496 20.1728 21.9569 19.6887 19.583C19.6198 19.9194 19.5834 20.2684 19.5834 20.6245C19.5834 23.4965 21.9198 25.8329 24.7918 25.8329C27.6635 25.8329 29.9999 23.4965 29.9999 20.6245C29.9999 20.2684 29.9635 19.9194 29.8949 19.583C29.4104 21.9569 27.3064 23.7496 24.7918 23.7496Z" fill="#FBC0AA"/>
<path d="M4.99994 9.1665H29.9999V11.2498H4.99994V9.1665Z" fill="#C7CCE1"/>
<path d="M4.99994 13.3335H19.5833V15.4168H4.99994V13.3335Z" fill="#C7CCE1"/>
<path d="M4.99994 17.5H15.4167V19.5833H4.99994V17.5Z" fill="#C7CCE1"/>
<path d="M4.99994 3.95801H7.08325V6.04132H4.99994V3.95801Z" fill="white"/>
<path d="M9.16655 3.95801H11.2499V6.04132H9.16655V3.95801Z" fill="white"/>
</g>
<defs>
<clipPath id="clip0">
<rect width="33.3333" height="33.3333" fill="white" transform="translate(0.833328 0.833008)"/>
</clipPath>
</defs>
</svg>
